<mxfile host="65bd71144e">
    <diagram id="FZoQNnuY2bF6ZyHFdKvj" name="Page-1">
        <mxGraphModel dx="2058" dy="787" grid="1" gridSize="10" guides="1" tooltips="1" connect="1" arrows="1" fold="1" page="1" pageScale="1" pageWidth="850" pageHeight="1100" math="0" shadow="0">
            <root>
                <mxCell id="0"/>
                <mxCell id="1" parent="0"/>
                <mxCell id="3" value="SQL&amp;nbsp; (Structured Query Language)" style="swimlane;whiteSpace=wrap;html=1;" parent="1" vertex="1">
                    <mxGeometry x="-180" y="50" width="1020" height="630" as="geometry"/>
                </mxCell>
                <mxCell id="4" value="&lt;h1&gt;&lt;span style=&quot;background-color: initial;&quot;&gt;SQL&lt;/span&gt;&lt;/h1&gt;&lt;h1&gt;&lt;div style=&quot;box-sizing: border-box; font-family: -apple-system, BlinkMacSystemFont, &amp;quot;Segoe UI&amp;quot;, system-ui, &amp;quot;Apple Color Emoji&amp;quot;, &amp;quot;Segoe UI Emoji&amp;quot;, &amp;quot;Segoe UI Web&amp;quot;, sans-serif; font-size: 14px; font-weight: 400;&quot;&gt;A Linguagem de consulta estruturada (SQL) é uma linguagem de programação para armazenar e processar informações em um banco de dados relacional.&lt;/div&gt;&lt;/h1&gt;" style="text;html=1;spacing=5;spacingTop=-20;whiteSpace=wrap;overflow=hidden;rounded=0;" parent="3" vertex="1">
                    <mxGeometry x="10" y="30" width="180" height="165" as="geometry"/>
                </mxCell>
                <mxCell id="10" style="edgeStyle=none;html=1;entryX=0.585;entryY=-0.017;entryDx=0;entryDy=0;entryPerimeter=0;fontSize=29;fontColor=#000000;" parent="3" target="7" edge="1">
                    <mxGeometry relative="1" as="geometry">
                        <mxPoint x="320" y="110" as="sourcePoint"/>
                    </mxGeometry>
                </mxCell>
                <mxCell id="11" style="edgeStyle=none;html=1;entryX=0.592;entryY=-0.017;entryDx=0;entryDy=0;entryPerimeter=0;fontSize=29;fontColor=#000000;exitX=0.349;exitY=1.033;exitDx=0;exitDy=0;exitPerimeter=0;" parent="3" source="5" target="8" edge="1">
                    <mxGeometry relative="1" as="geometry"/>
                </mxCell>
                <mxCell id="13" style="edgeStyle=none;html=1;entryX=0.5;entryY=0;entryDx=0;entryDy=0;fontSize=29;fontColor=#000000;" parent="3" source="5" target="12" edge="1">
                    <mxGeometry relative="1" as="geometry"/>
                </mxCell>
                <mxCell id="16" style="edgeStyle=none;html=1;entryX=0.5;entryY=0;entryDx=0;entryDy=0;fontSize=29;fontColor=#000000;exitX=0.683;exitY=0.983;exitDx=0;exitDy=0;exitPerimeter=0;" parent="3" source="5" target="14" edge="1">
                    <mxGeometry relative="1" as="geometry"/>
                </mxCell>
                <mxCell id="17" style="edgeStyle=none;html=1;entryX=0.6;entryY=-0.017;entryDx=0;entryDy=0;entryPerimeter=0;fontSize=29;fontColor=#000000;exitX=0.939;exitY=1.067;exitDx=0;exitDy=0;exitPerimeter=0;" parent="3" source="5" target="15" edge="1">
                    <mxGeometry relative="1" as="geometry"/>
                </mxCell>
                <mxCell id="5" value="&lt;b&gt;&lt;font color=&quot;#ffffff&quot; style=&quot;font-size: 29px;&quot;&gt;SQL&lt;/font&gt;&lt;/b&gt;" style="rounded=1;whiteSpace=wrap;html=1;fillColor=#3333FF;strokeColor=#FFFFFF;" parent="3" vertex="1">
                    <mxGeometry x="230" y="50" width="740" height="60" as="geometry"/>
                </mxCell>
                <mxCell id="30" style="edgeStyle=none;html=1;entryX=0.5;entryY=0;entryDx=0;entryDy=0;fontSize=15;" edge="1" parent="3" source="7" target="29">
                    <mxGeometry relative="1" as="geometry"/>
                </mxCell>
                <mxCell id="7" value="&lt;b&gt;&lt;font color=&quot;#ffffff&quot; style=&quot;font-size: 29px;&quot;&gt;DDL&lt;/font&gt;&lt;/b&gt;" style="rounded=1;whiteSpace=wrap;html=1;fillColor=#904fb0;strokeColor=#FFFFFF;" parent="3" vertex="1">
                    <mxGeometry x="220" y="160" width="130" height="60" as="geometry"/>
                </mxCell>
                <mxCell id="28" style="edgeStyle=none;html=1;entryX=0.569;entryY=0.017;entryDx=0;entryDy=0;entryPerimeter=0;fontSize=15;" edge="1" parent="3" source="8" target="27">
                    <mxGeometry relative="1" as="geometry"/>
                </mxCell>
                <mxCell id="8" value="&lt;b&gt;&lt;font color=&quot;#ffffff&quot; style=&quot;font-size: 29px;&quot;&gt;DML&lt;/font&gt;&lt;/b&gt;" style="rounded=1;whiteSpace=wrap;html=1;fillColor=#904fb0;strokeColor=#FFFFFF;" parent="3" vertex="1">
                    <mxGeometry x="380" y="160" width="130" height="60" as="geometry"/>
                </mxCell>
                <mxCell id="22" style="edgeStyle=none;html=1;entryX=0.5;entryY=0;entryDx=0;entryDy=0;fontSize=18;fontColor=#050505;" parent="3" source="12" target="21" edge="1">
                    <mxGeometry relative="1" as="geometry"/>
                </mxCell>
                <mxCell id="12" value="&lt;b&gt;&lt;font color=&quot;#ffffff&quot; style=&quot;font-size: 29px;&quot;&gt;DQL&lt;/font&gt;&lt;/b&gt;" style="rounded=1;whiteSpace=wrap;html=1;fillColor=#904fb0;strokeColor=#FFFFFF;" parent="3" vertex="1">
                    <mxGeometry x="540" y="160" width="130" height="60" as="geometry"/>
                </mxCell>
                <mxCell id="24" style="edgeStyle=none;html=1;entryX=0.438;entryY=-0.033;entryDx=0;entryDy=0;entryPerimeter=0;fontSize=22;" edge="1" parent="3" source="14" target="23">
                    <mxGeometry relative="1" as="geometry"/>
                </mxCell>
                <mxCell id="14" value="&lt;b&gt;&lt;font color=&quot;#ffffff&quot; style=&quot;font-size: 29px;&quot;&gt;DCL&lt;/font&gt;&lt;/b&gt;" style="rounded=1;whiteSpace=wrap;html=1;fillColor=#904fb0;strokeColor=#FFFFFF;" parent="3" vertex="1">
                    <mxGeometry x="700" y="160" width="130" height="60" as="geometry"/>
                </mxCell>
                <mxCell id="26" style="edgeStyle=none;html=1;entryX=0.446;entryY=0;entryDx=0;entryDy=0;entryPerimeter=0;fontSize=15;" edge="1" parent="3" source="15" target="25">
                    <mxGeometry relative="1" as="geometry"/>
                </mxCell>
                <mxCell id="15" value="&lt;b&gt;&lt;font color=&quot;#f2f2f2&quot; style=&quot;font-size: 29px;&quot;&gt;DTL&lt;/font&gt;&lt;/b&gt;" style="rounded=1;whiteSpace=wrap;html=1;fillColor=#904fb0;strokeColor=#FFFFFF;" parent="3" vertex="1">
                    <mxGeometry x="860" y="160" width="130" height="60" as="geometry"/>
                </mxCell>
                <mxCell id="20" value="&lt;b&gt;&lt;font color=&quot;#050505&quot; style=&quot;font-size: 18px;&quot;&gt;COMANDOS SQL&lt;/font&gt;&lt;/b&gt;" style="rounded=1;whiteSpace=wrap;html=1;fillColor=#f5f5f5;strokeColor=#666666;fontColor=#333333;" parent="3" vertex="1">
                    <mxGeometry x="230" y="240" width="740" height="30" as="geometry"/>
                </mxCell>
                <mxCell id="21" value="&lt;b&gt;&lt;font color=&quot;#1e0101&quot; style=&quot;font-size: 29px;&quot;&gt;SELECT&lt;/font&gt;&lt;/b&gt;" style="rounded=1;whiteSpace=wrap;html=1;fillColor=#FFFFFF;strokeColor=#FFFFFF;" parent="3" vertex="1">
                    <mxGeometry x="540" y="320" width="130" height="60" as="geometry"/>
                </mxCell>
                <mxCell id="23" value="&lt;b style=&quot;font-size: 22px;&quot;&gt;&lt;font style=&quot;font-size: 22px;&quot;&gt;&lt;font color=&quot;#130101&quot;&gt;GRANT&lt;br&gt;REVOKE&lt;/font&gt;&lt;br&gt;&lt;/font&gt;&lt;/b&gt;" style="rounded=1;whiteSpace=wrap;html=1;fillColor=#FFFFFF;strokeColor=#FFFFFF;" parent="3" vertex="1">
                    <mxGeometry x="710" y="320" width="130" height="60" as="geometry"/>
                </mxCell>
                <mxCell id="25" value="&lt;b style=&quot;font-size: 15px;&quot;&gt;&lt;font style=&quot;font-size: 15px;&quot;&gt;&lt;font color=&quot;#180101&quot;&gt;BEGGIN&lt;br&gt;COMMIT&lt;br&gt;ROLLBACK&lt;/font&gt;&lt;br&gt;&lt;/font&gt;&lt;/b&gt;" style="rounded=1;whiteSpace=wrap;html=1;fillColor=#FFFFFF;strokeColor=#FFFFFF;" vertex="1" parent="3">
                    <mxGeometry x="870" y="320" width="130" height="60" as="geometry"/>
                </mxCell>
                <mxCell id="27" value="&lt;b style=&quot;font-size: 15px;&quot;&gt;&lt;font style=&quot;font-size: 15px;&quot;&gt;&lt;font color=&quot;#170202&quot;&gt;INSERT&lt;br&gt;UPDATE&lt;br&gt;DELETE&lt;/font&gt;&lt;br&gt;&lt;/font&gt;&lt;/b&gt;" style="rounded=1;whiteSpace=wrap;html=1;fillColor=#FFFFFF;strokeColor=#FFFFFF;" vertex="1" parent="3">
                    <mxGeometry x="370" y="320" width="130" height="60" as="geometry"/>
                </mxCell>
                <mxCell id="29" value="&lt;b style=&quot;font-size: 15px;&quot;&gt;&lt;font style=&quot;font-size: 15px;&quot;&gt;&lt;font color=&quot;#180101&quot;&gt;CREATE&lt;br&gt;ALTER&lt;br&gt;DROP&lt;/font&gt;&lt;br&gt;&lt;/font&gt;&lt;/b&gt;" style="rounded=1;whiteSpace=wrap;html=1;fillColor=#FFFFFF;strokeColor=#FFFFFF;" vertex="1" parent="3">
                    <mxGeometry x="220" y="320" width="130" height="60" as="geometry"/>
                </mxCell>
            </root>
        </mxGraphModel>
    </diagram>
</mxfile>